<svg xmlns="http://www.w3.org/2000/svg" viewBox="146 -5 65 65" fill="none">
  <path d="M186.143 0h-7.219a10.285 10.285 0 00-7.218 2.958 10.15 10.15 0 00-2.968 7.193v10.845h-6.926a10.285 10.285 0 00-7.218 2.957 10.151 10.151 0 00-2.968 7.194v7.193c26.456 2.045 36.422-14.35 34.517-38.34zm-11.835 54.516h6.046c2.271 0 4.433-.913 6.045-2.483a8.462 8.462 0 002.492-6.025V40.24h9.124c2.272 0 4.434-.913 6.046-2.483a8.466 8.466 0 002.492-6.025v-6.025c-20.19-1.606-33.968 6.719-32.245 28.81z" fill="#6E1EEF"/>
</svg>