<svg width="870" height="238" viewBox="0 0 870 238" fill="none" xmlns="http://www.w3.org/2000/svg">
<rect y="118.984" width="72.4436" height="7.73194" rx="3.86597" transform="rotate(-45 0 118.984)" fill="black"/>
<rect x="59.5033" y="59.4766" width="46.214" height="7.73194" rx="3.86597" transform="rotate(-45 59.5033 59.4766)" fill="black"/>
<rect x="100.461" y="18.5195" width="26.1905" height="7.73194" rx="3.86597" transform="rotate(-45 100.461 18.5195)" fill="black"/>
<rect width="72.4436" height="7.73194" rx="3.86597" transform="matrix(-0.707107 0.707107 0.707107 0.707107 232.526 113.539)" fill="black"/>
<rect width="46.214" height="7.73194" rx="3.86597" transform="matrix(-0.707107 0.707107 0.707107 0.707107 146.218 199.848)" fill="black"/>
<rect width="26.1905" height="7.73194" rx="3.86597" transform="matrix(-0.707107 0.707107 0.707107 0.707107 173.017 173.047)" fill="black"/>
<rect x="28.3877" y="147.363" width="43.0134" height="7.73194" rx="3.86597" transform="rotate(-45 28.3877 147.363)" fill="black"/>
<rect x="64.9545" y="110.793" width="69.5162" height="7.73194" rx="3.86597" transform="rotate(-45 64.9545 110.793)" fill="#00A5CB"/>
<rect x="120.268" y="55.4883" width="38.3686" height="7.73194" rx="3.86597" transform="rotate(-45 120.268 55.4883)" fill="black"/>
<rect x="42.579" y="161.562" width="29.7425" height="7.73194" rx="3.86597" transform="rotate(-45 42.579 161.562)" fill="black"/>
<rect x="69.9547" y="134.18" width="46.175" height="7.73194" rx="3.86597" transform="rotate(-45 69.9547 134.18)" fill="#00A5CB"/>
<rect x="110.362" y="93.7734" width="72.4436" height="7.73194" rx="3.86597" transform="rotate(-45 110.362 93.7734)" fill="black"/>
<rect width="29.7425" height="7.73194" rx="3.86597" transform="matrix(-0.707107 0.707107 0.707107 0.707107 189.974 70.9375)" fill="black"/>
<rect width="46.175" height="7.73194" rx="3.86597" transform="matrix(-0.707107 0.707107 0.707107 0.707107 162.598 98.3203)" fill="#00A5CB"/>
<rect width="72.4436" height="7.73194" rx="3.86597" transform="matrix(-0.707107 0.707107 0.707107 0.707107 122.191 138.719)" fill="black"/>
<rect x="56.77" y="175.75" width="37.705" height="7.73194" rx="3.86597" transform="rotate(-45 56.77 175.75)" fill="black"/>
<rect x="91.4933" y="141.031" width="69.4381" height="7.73194" rx="3.86597" transform="rotate(-45 91.4933 141.031)" fill="#00A5CB"/>
<rect x="149.148" y="83.375" width="37.666" height="7.73194" rx="3.86597" transform="rotate(-45 149.148 83.375)" fill="black"/>
<rect width="37.705" height="7.73194" rx="3.86597" transform="matrix(-0.707107 0.707107 0.707107 0.707107 204.165 85.125)" fill="black"/>
<rect width="69.4381" height="7.73194" rx="3.86597" transform="matrix(-0.707107 0.707107 0.707107 0.707107 169.447 119.852)" fill="#00A5CB"/>
<rect width="37.666" height="7.73194" rx="3.86597" transform="matrix(-0.707107 0.707107 0.707107 0.707107 111.792 177.5)" fill="black"/>
<rect x="14.1915" y="133.172" width="168.267" height="7.73194" rx="3.86597" transform="rotate(-45 14.1915 133.172)" fill="black"/>
<rect x="99.3489" y="218.328" width="168.267" height="7.73194" rx="3.86597" transform="rotate(-45 99.3489 218.328)" fill="black"/>
<path d="M309.35 89.4083L302.88 94.4148C299.645 89.7164 294.947 87.3287 288.785 87.3287C284.626 87.3287 280.929 88.4841 277.848 90.7177C274.767 92.9514 273.227 96.2633 273.227 100.5C273.227 104.043 274.536 106.969 277.078 109.126C279.62 111.283 282.777 112.9 286.397 114.055C290.018 115.211 293.715 116.443 297.335 117.753C301.032 119.062 304.113 121.296 306.731 124.299C309.273 127.303 310.582 131.231 310.582 136.007C310.582 142.323 308.118 147.406 303.188 151.257C298.259 155.108 292.713 157.034 286.552 157.034C276.539 157.034 268.913 153.414 263.599 146.251L270.3 141.398C273.766 147.329 279.234 150.256 286.86 150.256C290.865 150.256 294.408 149.024 297.643 146.636C300.878 144.248 302.495 141.013 302.495 136.931C302.495 133.696 301.571 131.077 299.722 128.921C297.874 126.841 295.563 125.301 292.79 124.376C290.018 123.452 287.014 122.374 283.779 121.219C280.544 120.063 277.54 118.831 274.767 117.598C271.994 116.366 269.761 114.364 267.835 111.514C266.141 108.895 265.216 105.429 265.216 101.27C265.216 94.6459 267.527 89.4854 272.148 85.9423C276.77 82.3223 282.315 80.5508 288.785 80.5508C297.335 80.5508 304.19 83.4776 309.35 89.4083Z" fill="#00A5CB"/>
<path d="M383.679 139.396L389.763 143.709C387.222 147.637 383.525 150.795 378.749 153.337C373.974 155.879 368.659 157.111 362.806 157.111C351.869 157.111 342.857 153.491 335.617 146.251C328.377 139.011 324.834 129.845 324.834 118.831C324.834 107.817 328.454 98.651 335.617 91.4109C342.78 84.1708 351.869 80.5508 362.806 80.5508C367.581 80.5508 372.279 81.475 376.747 83.4006C381.214 85.3262 384.988 88.176 387.992 92.0271L381.522 96.8795C379.982 94.4148 377.44 92.1811 373.82 90.2556C370.2 88.33 366.503 87.3287 362.806 87.3287C353.717 87.3287 346.477 90.4096 341.008 96.5714C335.54 102.733 332.844 110.127 332.844 118.831C332.844 127.534 335.54 135.006 341.008 141.09C346.477 147.252 353.717 150.333 362.806 150.333C371.971 150.333 378.903 146.713 383.679 139.396Z" fill="#00A5CB"/>
<path d="M413.093 136.164L405.083 155.265H396.457L428.19 82.4023H435.43L467.009 155.265H458.382L450.372 136.087H413.093V136.164ZM431.733 91.0288L415.866 129.309H447.445L431.733 91.0288Z" fill="#00A5CB"/>
<path d="M488.423 82.4023V148.487H522.39V155.265H481.029V82.4023H488.423Z" fill="#00A5CB"/>
<path d="M544.035 120.759V148.41H583.008V155.265H536.564V82.4023H581.776V89.1803H544.035V113.981H579.311V120.759H544.035Z" fill="#00A5CB"/>
<path d="M613.36 155.265V96.5744H592.564V82.4023H650.176V96.5744H629.38V155.265H613.36Z" fill="black"/>
<path d="M663.116 155.265V82.4023H712.641V97.1906H679.213V110.747H710.792V125.535H679.213V140.323H714.489V155.265H663.116Z" fill="black"/>
<path d="M791.427 91.2569L779.103 101.347C775.714 97.3416 771.17 95.4161 765.316 95.4161C759.231 95.4161 754.148 97.6497 750.22 102.04C746.215 106.43 744.289 112.053 744.289 118.831C744.289 125.532 746.292 131.154 750.22 135.622C754.148 140.089 759.077 142.323 764.854 142.323C771.401 142.323 776.407 139.704 779.873 134.466L793.275 144.479C790.348 148.638 786.497 151.796 781.799 153.953C777.101 156.11 772.171 157.111 766.934 157.111C755.38 157.111 745.984 153.645 738.666 146.636C731.349 139.627 727.652 130.384 727.652 118.831C727.652 107.278 731.349 98.0348 738.666 91.0258C745.83 84.0168 755.303 80.5508 766.78 80.5508C771.401 80.5508 775.868 81.398 780.335 83.0925C784.88 84.864 788.5 87.5598 791.427 91.2569Z" fill="black"/>
<path d="M805.989 155.265V82.4023H822.087V109.591H853.281V82.4023H869.301V155.265H853.281V123.763H822.087V155.265H805.989Z" fill="black"/>
</svg>
